<svg
        xmlns="http://www.w3.org/2000/svg"
        width="386.477px"
        height="300"
        viewBox="0 24 139 50"
        fill="none"
>
    <g clip-path="url(#clip0_721_5883)">
        <!-- upper line -->
        <path d="M135.87 2.36167C131.587 -2.06168 125.283 0.621335 120.803 3.18004C108.683 10.1103 97.1686 18.1283 85.323 25.504C84.8723 25.7837 84.5253 26.1152 84.2612 26.4777C86.276 27.9798 88.3064 29.4871 90.342 30.9995C100.515 24.6286 110.516 17.9936 120.772 11.7574C122.523 10.6956 128.101 6.29296 130.251 7.26672C132.757 8.40104 130.52 14.9118 129.976 16.8282C127.92 24.0796 125.423 31.2274 122.709 38.2509C121.191 42.177 119.591 46.072 117.902 49.9256C117.131 51.6867 115.779 57.032 113.779 57.3531C112.391 57.581 109.232 54.8514 108.134 54.0952C106.409 52.9039 104.726 51.6504 103.032 50.4229C100.059 48.2733 97.1013 46.1031 94.1438 43.9329C81.055 34.304 68.0957 24.5095 54.9914 14.9014C51.1896 12.1148 47.5329 18.4649 51.2984 21.2205C63.978 30.5178 76.5281 39.9912 89.1869 49.3196C95.3351 53.8517 101.494 59.3006 108.268 62.8538C113.386 65.5368 118.224 65.397 121.305 60.0413C124.817 53.9346 127.236 46.7557 129.769 40.1932C132.483 33.1645 134.979 26.0219 137.036 18.7705C138.47 13.6997 140.019 6.63999 135.876 2.36685L135.87 2.36167Z"
              fill="url(#paint0_radial_721_5883)">
        </path>
        <!-- lower line -->
        <path d="M43.7621 72.6591C37.3964 76.3624 31.0152 80.0451 24.6081 83.6708C21.5055 85.4267 18.4029 87.1877 15.2589 88.8763C13.6429 89.7464 11.3121 91.378 9.45264 90.3162C6.96645 88.9022 7.19435 83.7796 7.49995 81.4125C8.19919 75.9947 9.63393 70.5303 10.877 65.216C12.8815 56.6076 15.4972 48.1804 18.0404 39.7274C19.4026 35.2056 12.3377 33.2736 10.9806 37.7799C7.94021 47.88 4.92052 57.9439 2.69849 68.2668C0.968517 76.3106 -3.42893 89.9951 4.98786 96.1018C9.463 99.3493 14.5493 97.5676 18.952 95.1953C26.2603 91.264 33.4444 87.0841 40.6284 82.9353C55.2089 74.5133 69.6858 65.9153 84.2922 57.5399C84.7532 57.2757 85.1106 56.9598 85.3851 56.6076C83.3132 55.0848 81.2466 53.5568 79.1851 52.0288C67.3395 58.84 55.5715 65.7806 43.7621 72.6487V72.6591Z"
              fill="url(#paint1_radial_721_5883)">
        </path>
    </g>
    <defs>
        <radialGradient id="paint0_radial_721_5883" cx="0" cy="0" r="1" gradientUnits="userSpaceOnUse" gradientTransform="translate(2.64676 94.2782) scale(159.774 159.774)">
            <stop stop-color="#000AFA"></stop>
            <stop offset="0.97" stop-color="#BA477F"></stop>
        </radialGradient>
        <radialGradient id="paint1_radial_721_5883" cx="0" cy="0" r="1" gradientUnits="userSpaceOnUse" gradientTransform="translate(2.64669 94.2786) scale(159.774 159.774)">
            <stop stop-color="#000AFA"></stop>
            <stop offset="0.97" stop-color="#BA477F"></stop>
        </radialGradient>
        <clipPath id="clip0_721_5883">
            <rect width="512" height="97.8731" fill="white">

            </rect>
        </clipPath>
    </defs>
</svg>